<?xml version="1.0" standalone="no"?>
<!DOCTYPE svg PUBLIC "-//W3C//DTD SVG 20010904//EN"
 "http://www.w3.org/TR/2001/REC-SVG-20010904/DTD/svg10.dtd">
<svg version="1.0" xmlns="http://www.w3.org/2000/svg"
 width="128.000000pt" height="128.000000pt" viewBox="0 0 128.000000 128.000000"
 preserveAspectRatio="xMidYMid meet">
<metadata>
Created by potrace 1.14, written by Peter Selinger 2001-2017
</metadata>
<g transform="translate(0.000000,128.000000) scale(0.100000,-0.100000)"
fill="#000000" stroke="none">
<path d="M873 1260 c-17 -10 -36 -28 -42 -38 -6 -11 -27 -28 -48 -39 -20 -11
-44 -34 -52 -51 -9 -17 -23 -32 -31 -32 -8 0 -89 20 -180 45 -129 35 -167 42
-176 32 -16 -18 -237 -858 -227 -866 8 -7 36 -16 130 -41 l42 -11 3 -127 3
-127 425 0 425 0 5 455 c3 250 9 464 14 476 10 28 -5 38 -99 63 -44 12 -87 24
-95 27 -10 3 -2 15 28 42 70 60 68 148 -3 192 -41 25 -81 25 -122 0z m116 -74
c12 -25 11 -31 -6 -55 -26 -33 -65 -39 -92 -12 -25 25 -27 49 -5 79 24 35 84
28 103 -12z m-421 -106 c103 -28 139 -42 150 -59 13 -19 13 -24 -2 -39 -9 -10
-16 -24 -16 -31 0 -20 30 -24 50 -6 14 13 23 14 39 6 31 -17 83 -13 119 9 l33
20 82 -22 c45 -12 83 -23 85 -24 3 -2 -158 -616 -164 -623 -2 -2 -35 4 -73 14
-38 9 -74 14 -80 11 -5 -3 -18 -38 -27 -76 -14 -53 -22 -69 -34 -65 -8 2 -136
36 -285 76 -148 39 -271 73 -273 74 -3 3 189 733 203 773 5 14 -2 16 193 -38z
m252 37 c0 -16 48 -61 74 -71 19 -7 19 -7 -2 -28 -26 -26 -75 -28 -102 -3 -22
20 -26 65 -10 96 12 22 40 26 40 6z m280 -757 l0 -310 -380 0 -380 0 0 95 c0
53 4 95 9 95 6 0 101 -25 213 -55 l203 -54 110 62 110 62 55 208 c30 114 56
207 57 207 2 0 3 -139 3 -310z m-226 -89 c17 -6 14 -10 -19 -30 -43 -25 -48
-23 -39 13 6 26 22 31 58 17z"/>
<path d="M410 845 c-9 -11 -10 -19 -3 -26 11 -11 478 -139 510 -139 28 0 39
18 22 34 -8 7 -120 41 -249 75 -129 34 -242 64 -251 67 -9 2 -22 -3 -29 -11z"/>
<path d="M383 744 c-3 -8 -2 -19 3 -24 12 -12 494 -141 513 -138 9 2 16 12 16
23 0 17 -31 28 -250 87 -137 37 -256 68 -263 68 -7 0 -15 -7 -19 -16z"/>
<path d="M353 644 c-8 -21 8 -30 95 -51 54 -12 75 -14 84 -5 19 19 -7 38 -77
56 -80 20 -94 20 -102 0z"/>
<path d="M607 593 c-15 -14 -7 -43 12 -43 26 0 36 17 21 35 -14 16 -23 19 -33
8z"/>
</g>
</svg>
