<svg width="18" height="18" viewBox="0 0 18 18" fill="none" xmlns="http://www.w3.org/2000/svg">
<path d="M10.6358 1.90949C11.2888 1.47412 11.6153 1.25643 11.9711 1.29166C12.3269 1.32689 12.6044 1.60439 13.1594 2.15938L15.8406 4.84062C16.3956 5.39561 16.6731 5.67311 16.7083 6.02888C16.7436 6.38465 16.5259 6.71118 16.0905 7.36424L14.4419 9.83722C13.88 10.68 13.5991 11.1013 13.3749 11.5511C13.2086 11.8845 13.0659 12.2292 12.9476 12.5825C12.7882 13.0591 12.6889 13.5557 12.4902 14.5489L12.2992 15.5038C12.2986 15.5072 12.2982 15.5089 12.298 15.5101C12.1556 16.213 11.3414 16.5419 10.7508 16.1351C10.7497 16.1344 10.7483 16.1334 10.7455 16.1315V16.1315C10.7322 16.1223 10.7255 16.1177 10.7189 16.1131C7.26917 13.7225 4.27754 10.7308 1.88691 7.28108C1.88233 7.27448 1.87772 7.26782 1.86851 7.25451V7.25451C1.86655 7.25169 1.86558 7.25028 1.86486 7.24924C1.45815 6.65858 1.78704 5.84444 2.4899 5.70202C2.49113 5.70177 2.49282 5.70144 2.49618 5.70076L3.45114 5.50977C4.44433 5.31113 4.94092 5.21182 5.4175 5.05236C5.77083 4.93415 6.11548 4.79139 6.44892 4.62514C6.89866 4.40089 7.32003 4.11998 8.16278 3.55815L10.6358 1.90949Z" stroke="#222222"/>
<path d="M1 17L5.5 12.5" stroke="#222222" stroke-linecap="round"/>
</svg>
