<svg width="14" height="15" viewBox="0 0 14 20" fill="none" xmlns="http://www.w3.org/2000/svg">
<path d="M2.3424 10.9456C2.72187 8.66876 4.69178 7 7 7V7C9.30822 7 11.2781 8.66876 11.6576 10.9456L11.7605 11.5631C11.9163 12.4976 12.3601 13.3601 13.03 14.03V14.03C13.388 14.388 13.1345 15 12.6283 15H1.37174C0.865534 15 0.612024 14.388 0.969966 14.03V14.03C1.63988 13.3601 2.08373 12.4976 2.23948 11.5631L2.3424 10.9456Z" stroke="#222222"/>
<path d="M6 7L7 1" stroke="#222222" stroke-linecap="round"/>
<path d="M8 7L7 1" stroke="#222222" stroke-linecap="round"/>
<path d="M5.06815 18.6294C5.1821 18.7357 5.43319 18.8297 5.78248 18.8967C6.13177 18.9637 6.55973 19 7 19C7.44027 19 7.86823 18.9637 8.21752 18.8967C8.56681 18.8297 8.8179 18.7357 8.93185 18.6294" stroke="#222222" stroke-linecap="round"/>
</svg>
