<svg width="44" height="44" viewBox="0 0 44 44" fill="none" xmlns="http://www.w3.org/2000/svg">
<path d="M22 5.5C12.8883 5.5 5.5 12.8883 5.5 22C5.5 31.1117 12.8883 38.5 22 38.5C23.5217 38.5 24.75 37.2717 24.75 35.75C24.75 35.035 24.475 34.3933 24.035 33.8983C23.6133 33.4217 23.3383 32.78 23.3383 32.0833C23.3383 30.5617 24.5667 29.3333 26.0883 29.3333H29.3333C34.3933 29.3333 38.5 25.2267 38.5 20.1667C38.5 12.0633 31.1117 5.5 22 5.5ZM11.9167 22C10.395 22 9.16667 20.7717 9.16667 19.25C9.16667 17.7283 10.395 16.5 11.9167 16.5C13.4383 16.5 14.6667 17.7283 14.6667 19.25C14.6667 20.7717 13.4383 22 11.9167 22ZM17.4167 14.6667C15.895 14.6667 14.6667 13.4383 14.6667 11.9167C14.6667 10.395 15.895 9.16667 17.4167 9.16667C18.9383 9.16667 20.1667 10.395 20.1667 11.9167C20.1667 13.4383 18.9383 14.6667 17.4167 14.6667ZM26.5833 14.6667C25.0617 14.6667 23.8333 13.4383 23.8333 11.9167C23.8333 10.395 25.0617 9.16667 26.5833 9.16667C28.105 9.16667 29.3333 10.395 29.3333 11.9167C29.3333 13.4383 28.105 14.6667 26.5833 14.6667ZM32.0833 22C30.5617 22 29.3333 20.7717 29.3333 19.25C29.3333 17.7283 30.5617 16.5 32.0833 16.5C33.605 16.5 34.8333 17.7283 34.8333 19.25C34.8333 20.7717 33.605 22 32.0833 22Z" fill="black" fill-opacity="0.87"/>
</svg>
