<svg width="18" height="15" viewBox="0 0 18 15" fill="none" xmlns="http://www.w3.org/2000/svg">
<path d="M7.5 11.5L6.5 8" stroke="#222222" stroke-linecap="round"/>
<path d="M5.5 0.5L3.5 3.5M12.5 0.5L14.5 3.5" stroke="#222222" stroke-linecap="round"/>
<path d="M10.5 11.5L11.5 8" stroke="#222222" stroke-linecap="round"/>
<path d="M1.5 5.5V5.5C2.08429 5.5 2.59018 5.90581 2.71693 6.47619L3.80394 11.3677C4.13763 12.8694 4.30448 13.6202 4.85289 14.0601C5.4013 14.5 6.17043 14.5 7.70869 14.5H10.2913C11.8296 14.5 12.5987 14.5 13.1471 14.0601C13.6955 13.6202 13.8624 12.8694 14.1961 11.3677L15.2831 6.47619C15.4098 5.90581 15.9157 5.5 16.5 5.5V5.5" stroke="#222222" stroke-linecap="round"/>
<path d="M16.5 5.5H1.5C0.947715 5.5 0.5 5.05228 0.5 4.5C0.5 3.94772 0.947715 3.5 1.5 3.5H16.5C17.0523 3.5 17.5 3.94772 17.5 4.5C17.5 5.05228 17.0523 5.5 16.5 5.5Z" stroke="#222222" stroke-linecap="round"/>
</svg>
